<?xml version="1.0" encoding="UTF-8" standalone="no"?>
<svg
   xmlns:dc="http://purl.org/dc/elements/1.1/"
   xmlns:cc="http://creativecommons.org/ns#"
   xmlns:rdf="http://www.w3.org/1999/02/22-rdf-syntax-ns#"
   xmlns:svg="http://www.w3.org/2000/svg"
   xmlns="http://www.w3.org/2000/svg"
   width="313.64078mm"
   height="68.560524mm"
   viewBox="0 0 313.64078 68.560523"
   version="1.1"
   id="svg8">
  <defs
     id="defs2" />
  <metadata
     id="metadata5">
    <rdf:RDF>
      <cc:Work
         rdf:about="">
        <dc:format>image/svg+xml</dc:format>
        <dc:type
           rdf:resource="http://purl.org/dc/dcmitype/StillImage" />
        <dc:title></dc:title>
      </cc:Work>
    </rdf:RDF>
  </metadata>
  <g
     id="layer1"
     transform="translate(172.24056,-84.212084)">
    <g
       aria-label="BeaU"
       transform="matrix(0.26458333,0,0,0.26458333,-41.539583,5.55625)"
       style="font-style:normal;font-variant:normal;font-weight:normal;font-stretch:normal;font-size:40px;line-height:1.25;font-family:'Good Times';-inkscape-font-specification:'Good Times';letter-spacing:0px;word-spacing:0px;fill:#ffffff;fill-opacity:1;stroke:none"
       id="flowRoot823" />
    <flowRoot
       xml:space="preserve"
       id="flowRoot831"
       style="font-style:normal;font-variant:normal;font-weight:normal;font-stretch:normal;font-size:40px;line-height:1.25;font-family:'Good Times';-inkscape-font-specification:'Good Times';letter-spacing:0px;word-spacing:0px;fill:#000000;fill-opacity:1;stroke:none"
       transform="scale(0.26458333)"><flowRegion
         id="flowRegion833"
         style="font-style:normal;font-variant:normal;font-weight:normal;font-stretch:normal;font-family:'Good Times';-inkscape-font-specification:'Good Times'"><rect
           id="rect835"
           width="364"
           height="328"
           x="114"
           y="344.51968"
           style="font-style:normal;font-variant:normal;font-weight:normal;font-stretch:normal;font-family:'Good Times';-inkscape-font-specification:'Good Times'" /></flowRegion><flowPara
         id="flowPara837" /></flowRoot>    <g
       id="g906">
      <g
         id="flowRoot843"
         style="font-style:normal;font-weight:normal;font-size:40px;line-height:1.25;font-family:sans-serif;letter-spacing:0px;word-spacing:0px;fill:#ffffff;fill-opacity:1;stroke:none"
         transform="matrix(0.26458334,0,0,0.26458334,-165.05108,82.414714)"
         aria-label="Lanaudière Inc.">
        <g
           id="g914">
          <rect
             transform="matrix(3.7795275,0,0,3.7795275,623.81509,-311.48867)"
             style="opacity:1;fill:#76bc43;fill-opacity:1;stroke:none;stroke-width:0.98264372;stroke-linejoin:round;stroke-miterlimit:4;stroke-dasharray:none;stroke-opacity:1;paint-order:normal"
             id="rect849"
             width="33.598858"
             height="33.598858"
             x="-172.24055"
             y="84.212082" />
          <path
             transform="translate(466.8151,-290.48867)"
             d="m -456.096,484.92753 v -139.584 h 102.144 q 10.176,0 18.432,2.304 8.448,2.304 14.4,6.912 5.952,4.416 9.216,11.328 3.264,6.72 3.264,15.552 0,6.72 -1.536,11.712 -1.536,4.992 -4.224,8.64 -2.688,3.456 -6.336,5.952 -3.456,2.304 -7.296,3.456 9.6,3.072 15.744,11.136 6.144,8.064 6.144,20.352 0,9.6 -3.264,17.472 -3.072,7.68 -9.024,13.248 -5.76,5.568 -14.208,8.64 -8.256,2.88 -18.432,2.88 z m 42.048,-60.672 v -20.544 h 60.288 q 10.368,0 15.36,-3.84 4.992,-3.84 4.992,-13.056 0,-5.568 -2.112,-8.832 -2.112,-3.456 -6.144,-5.184 -3.84,-1.92 -9.408,-2.496 -5.376,-0.576 -12.096,-0.576 h -68.544 v 91.008 h 70.656 q 6.528,0 12.096,-0.96 5.568,-0.96 9.6,-3.072 4.032,-2.304 6.144,-5.76 2.304,-3.456 2.304,-8.64 0,-8.64 -5.376,-13.248 -5.376,-4.8 -15.744,-4.8 z"
             style="font-style:normal;font-variant:normal;font-weight:normal;font-stretch:normal;font-size:192px;line-height:1.25;font-family:'Good Times';-inkscape-font-specification:'Good Times';letter-spacing:0px;word-spacing:0px;fill:#ffffff;fill-opacity:1;stroke:none"
             id="path833" />
          <path
             transform="translate(466.8151,-290.48867)"
             d="m -284.904,484.92753 z m 0,0 v -139.584 h 124.608 v 24.384 h -100.416 v 90.816 h 100.608 v 24.384 z m 42.048,-60.672 v -20.544 h 77.376 v 20.544 z"
             style="font-style:normal;font-variant:normal;font-weight:normal;font-stretch:normal;font-size:192px;line-height:1.25;font-family:'Good Times';-inkscape-font-specification:'Good Times';letter-spacing:0px;word-spacing:0px;fill:#ffffff;fill-opacity:1;stroke:none"
             id="path835" />
          <path
             transform="translate(466.8151,-290.48867)"
             d="m -148.437,484.92753 z m 154.944,0 -20.928,-35.136 h -66.048 l 11.52,-19.776 h 42.816 l -31.104,-52.224 -63.36,107.136 h -27.84 l 80.256,-133.632 q 2.112,-3.648 4.992,-5.76 2.88,-2.112 6.912,-2.112 4.032,0 6.72,2.112 2.88,2.112 4.992,5.76 l 80.448,133.632 z"
             style="font-style:normal;font-variant:normal;font-weight:normal;font-stretch:normal;font-size:192px;line-height:1.25;font-family:'Good Times';-inkscape-font-specification:'Good Times';letter-spacing:0px;word-spacing:0px;fill:#ffffff;fill-opacity:1;stroke:none"
             id="path837" />
          <path
             transform="translate(466.8151,-290.48867)"
             d="m 163.521,345.34353 h 23.808 v 77.952 q 0,16.128 -4.224,28.224 -4.224,11.904 -13.248,19.776 -9.024,7.872 -23.424,11.712 -14.208,3.84 -34.56,3.84 -20.16,0 -34.56,-3.84 -14.208,-3.84 -23.232,-11.712 -9.024,-7.872 -13.248,-19.776 -4.224,-12.096 -4.224,-28.224 v -77.952 h 25.152 v 77.952 q 0,10.56 2.496,18.048 2.688,7.488 8.448,12.288 5.952,4.8 15.744,7.104 9.792,2.112 24.192,2.112 14.4,0 24.192,-2.112 9.792,-2.304 15.552,-7.104 5.952,-4.8 8.448,-12.288 2.688,-7.488 2.688,-18.048 z"
             style="font-style:normal;font-variant:normal;font-weight:normal;font-stretch:normal;font-size:192px;line-height:1.25;font-family:'Good Times';-inkscape-font-specification:'Good Times';letter-spacing:0px;word-spacing:0px;fill:#ffffff;fill-opacity:1;stroke:none"
             id="path839" />
          <g
             aria-label="PRO"
             transform="translate(549.94009,-358.48867)"
             style="font-style:normal;font-variant:normal;font-weight:normal;font-stretch:normal;font-size:40px;line-height:1.25;font-family:'Good Times';-inkscape-font-specification:'Good Times';letter-spacing:0px;word-spacing:0px;fill:#76bc43;fill-opacity:1;stroke:none"
             id="flowRoot839">
            <path
               d="m 144.144,514.14353 v -23.616 h 56.064 q 12.864,0 19.968,-7.296 7.296,-7.296 7.296,-19.2 0,-12.096 -7.296,-19.2 -7.104,-7.104 -19.968,-7.104 h -73.92 v 115.2 h -24.192 v -139.584 h 98.112 q 12.096,0 21.504,3.648 9.6,3.456 16.128,9.984 6.528,6.336 9.984,15.552 3.456,9.216 3.456,20.736 0,11.328 -3.456,20.736 -3.456,9.216 -9.984,15.936 -6.528,6.72 -16.128,10.56 -9.408,3.648 -21.504,3.648 z"
               style="font-style:normal;font-variant:normal;font-weight:normal;font-stretch:normal;font-size:192px;font-family:'Good Times';-inkscape-font-specification:'Good Times';fill:#76bc43;fill-opacity:1"
               id="path826" />
            <path
               d="m 398.196,552.92753 -35.328,-38.784 h -52.224 v -21.504 h 58.176 q 13.248,0 19.968,-7.104 6.72,-7.296 6.72,-20.928 0,-13.632 -7.104,-20.16 -6.912,-6.72 -19.584,-6.72 h -76.032 v 115.2 h -24.192 v -139.584 H 368.82 q 11.904,0 21.312,3.648 9.408,3.456 15.936,10.176 6.528,6.528 9.984,15.936 3.456,9.408 3.456,21.12 0,17.472 -7.68,29.376 -7.488,11.712 -21.12,16.896 l 42.048,42.432 z"
               style="font-style:normal;font-variant:normal;font-weight:normal;font-stretch:normal;font-size:192px;font-family:'Good Times';-inkscape-font-specification:'Good Times';fill:#76bc43;fill-opacity:1"
               id="path828" />
            <path
               d="m 505.965,552.92753 q -14.592,0 -27.072,-5.376 -12.288,-5.568 -21.504,-14.976 -9.024,-9.6 -14.208,-22.656 -4.992,-13.056 -4.992,-28.224 0,-15.36 4.992,-28.032 5.184,-12.672 14.208,-21.504 9.216,-9.024 21.504,-13.824 12.48,-4.992 27.072,-4.992 h 33.984 q 15.168,0 27.648,4.992 12.672,4.992 21.696,14.016 9.024,9.024 14.016,21.696 4.992,12.48 4.992,27.648 0,15.168 -5.184,28.224 -4.992,13.056 -14.208,22.656 -9.024,9.408 -21.504,14.976 -12.48,5.376 -27.456,5.376 z m 33.984,-24.384 q 9.6,0 17.664,-3.456 8.064,-3.456 13.824,-9.408 5.952,-6.144 9.216,-14.592 3.264,-8.448 3.264,-18.24 0,-9.792 -3.264,-18.048 -3.264,-8.448 -9.216,-14.4 -5.76,-5.952 -13.824,-9.216 -8.064,-3.456 -17.664,-3.456 h -33.984 q -9.408,0 -17.472,3.456 -7.872,3.264 -13.632,9.216 -5.76,5.952 -9.024,14.208 -3.264,8.256 -3.264,18.24 0,9.792 3.264,18.24 3.264,8.448 9.024,14.592 5.76,5.952 13.632,9.408 8.064,3.456 17.472,3.456 z"
               style="font-style:normal;font-variant:normal;font-weight:normal;font-stretch:normal;font-size:192px;font-family:'Good Times';-inkscape-font-specification:'Good Times';fill:#76bc43;fill-opacity:1"
               id="path830" />
          </g>
          <path
             d="m 727.90323,228.1596 h 8.64 v 30.29333 h 18.72 v 7.04 h -27.36 z"
             style="font-style:normal;font-variant:normal;font-weight:bold;font-stretch:normal;font-size:53.33333206px;line-height:1.25;font-family:Montserrat;-inkscape-font-specification:'Montserrat Bold';font-variant-ligatures:normal;font-variant-caps:normal;font-variant-numeric:normal;font-feature-settings:normal;text-align:start;writing-mode:lr-tb;text-anchor:start;fill:#ffffff"
             id="path853" />
          <path
             d="m 771.3899,236.37293 q 6.66666,0 10.24,3.2 3.57333,3.14667 3.57333,9.54667 v 16.37333 h -7.78667 v -3.57333 q -2.34666,4 -8.74666,4 -3.30667,0 -5.76,-1.12 -2.4,-1.12 -3.68,-3.09334 -1.28,-1.97333 -1.28,-4.48 0,-4 2.98666,-6.29333 3.04,-2.29333 9.33334,-2.29333 h 6.61333 q 0,-2.72 -1.65333,-4.16 -1.65334,-1.49334 -4.96,-1.49334 -2.29334,0 -4.53334,0.74667 -2.18666,0.69333 -3.73333,1.92 l -2.98667,-5.81333 q 2.34667,-1.65334 5.6,-2.56 3.30667,-0.90667 6.77334,-0.90667 z m -0.64,23.94667 q 2.13333,0 3.78666,-0.96 1.65334,-1.01334 2.34667,-2.93334 v -2.93333 h -5.70667 q -5.12,0 -5.12,3.36 0,1.6 1.22667,2.56 1.28,0.90667 3.46667,0.90667 z"
             style="font-style:normal;font-variant:normal;font-weight:bold;font-stretch:normal;font-size:53.33333206px;line-height:1.25;font-family:Montserrat;-inkscape-font-specification:'Montserrat Bold';font-variant-ligatures:normal;font-variant-caps:normal;font-variant-numeric:normal;font-feature-settings:normal;text-align:start;writing-mode:lr-tb;text-anchor:start;fill:#ffffff"
             id="path855" />
          <path
             d="m 810.17323,236.37293 q 5.33333,0 8.58666,3.2 3.30667,3.2 3.30667,9.49333 v 16.42667 h -8.32 v -15.14667 q 0,-3.41333 -1.49333,-5.06666 -1.49334,-1.70667 -4.32,-1.70667 -3.14667,0 -5.01334,1.97333 -1.86666,1.92 -1.86666,5.76 v 14.18667 h -8.32 V 236.7996 h 7.94666 v 3.36 q 1.65334,-1.81334 4.10667,-2.77334 2.45333,-1.01333 5.38667,-1.01333 z"
             style="font-style:normal;font-variant:normal;font-weight:bold;font-stretch:normal;font-size:53.33333206px;line-height:1.25;font-family:Montserrat;-inkscape-font-specification:'Montserrat Bold';font-variant-ligatures:normal;font-variant-caps:normal;font-variant-numeric:normal;font-feature-settings:normal;text-align:start;writing-mode:lr-tb;text-anchor:start;fill:#ffffff"
             id="path857" />
          <path
             d="m 841.18156,236.37293 q 6.66667,0 10.24,3.2 3.57333,3.14667 3.57333,9.54667 v 16.37333 h -7.78666 v -3.57333 q -2.34667,4 -8.74667,4 -3.30667,0 -5.76,-1.12 -2.4,-1.12 -3.68,-3.09334 -1.28,-1.97333 -1.28,-4.48 0,-4 2.98667,-6.29333 3.04,-2.29333 9.33333,-2.29333 h 6.61333 q 0,-2.72 -1.65333,-4.16 -1.65333,-1.49334 -4.96,-1.49334 -2.29333,0 -4.53333,0.74667 -2.18667,0.69333 -3.73334,1.92 l -2.98666,-5.81333 q 2.34666,-1.65334 5.6,-2.56 3.30666,-0.90667 6.77333,-0.90667 z m -0.64,23.94667 q 2.13333,0 3.78667,-0.96 1.65333,-1.01334 2.34666,-2.93334 v -2.93333 h -5.70666 q -5.12,0 -5.12,3.36 0,1.6 1.22666,2.56 1.28,0.90667 3.46667,0.90667 z"
             style="font-style:normal;font-variant:normal;font-weight:bold;font-stretch:normal;font-size:53.33333206px;line-height:1.25;font-family:Montserrat;-inkscape-font-specification:'Montserrat Bold';font-variant-ligatures:normal;font-variant-caps:normal;font-variant-numeric:normal;font-feature-settings:normal;text-align:start;writing-mode:lr-tb;text-anchor:start;fill:#ffffff"
             id="path859" />
          <path
             d="m 891.43156,236.7996 v 28.69333 h -7.89334 v -3.41333 q -1.65333,1.86666 -3.94666,2.88 -2.29334,0.96 -4.96,0.96 -5.65334,0 -8.96,-3.25334 -3.30667,-3.25333 -3.30667,-9.65333 V 236.7996 h 8.32 v 14.98666 q 0,6.93334 5.81333,6.93334 2.98667,0 4.8,-1.92 1.81334,-1.97334 1.81334,-5.81334 V 236.7996 Z"
             style="font-style:normal;font-variant:normal;font-weight:bold;font-stretch:normal;font-size:53.33333206px;line-height:1.25;font-family:Montserrat;-inkscape-font-specification:'Montserrat Bold';font-variant-ligatures:normal;font-variant-caps:normal;font-variant-numeric:normal;font-feature-settings:normal;text-align:start;writing-mode:lr-tb;text-anchor:start;fill:#ffffff"
             id="path861" />
          <path
             d="m 928.41823,225.9196 v 39.57333 h -7.94667 v -3.30667 q -3.09333,3.73334 -8.96,3.73334 -4.05333,0 -7.36,-1.81334 -3.25333,-1.81333 -5.12,-5.17333 -1.86666,-3.36 -1.86666,-7.78667 0,-4.42666 1.86666,-7.78666 1.86667,-3.36 5.12,-5.17334 3.30667,-1.81333 7.36,-1.81333 5.49334,0 8.58667,3.46667 v -13.92 z m -15.46667,33.17333 q 3.14667,0 5.22667,-2.13333 2.08,-2.18667 2.08,-5.81334 0,-3.62666 -2.08,-5.76 -2.08,-2.18666 -5.22667,-2.18666 -3.2,0 -5.28,2.18666 -2.08,2.13334 -2.08,5.76 0,3.62667 2.08,5.81334 2.08,2.13333 5.28,2.13333 z"
             style="font-style:normal;font-variant:normal;font-weight:bold;font-stretch:normal;font-size:53.33333206px;line-height:1.25;font-family:Montserrat;-inkscape-font-specification:'Montserrat Bold';font-variant-ligatures:normal;font-variant-caps:normal;font-variant-numeric:normal;font-feature-settings:normal;text-align:start;writing-mode:lr-tb;text-anchor:start;fill:#ffffff"
             id="path863" />
          <path
             d="m 936.06656,236.7996 h 8.32 v 28.69333 h -8.32 z m 4.16,-4 q -2.29333,0 -3.73333,-1.33334 -1.44,-1.33333 -1.44,-3.30666 0,-1.97334 1.44,-3.30667 1.44,-1.33333 3.73333,-1.33333 2.29334,0 3.73334,1.28 1.44,1.28 1.44,3.2 0,2.08 -1.44,3.46666 -1.44,1.33334 -3.73334,1.33334 z"
             style="font-style:normal;font-variant:normal;font-weight:bold;font-stretch:normal;font-size:53.33333206px;line-height:1.25;font-family:Montserrat;-inkscape-font-specification:'Montserrat Bold';font-variant-ligatures:normal;font-variant-caps:normal;font-variant-numeric:normal;font-feature-settings:normal;text-align:start;writing-mode:lr-tb;text-anchor:start;fill:#ffffff"
             id="path865" />
          <path
             d="m 980.21488,251.25293 q 0,0.16 -0.16,2.24 h -21.70666 q 0.58667,2.66667 2.77333,4.21333 2.18667,1.54667 5.44,1.54667 2.24,0 3.94667,-0.64 1.76,-0.69333 3.25333,-2.13333 l 4.42667,4.8 q -4.05333,4.64 -11.84,4.64 -4.85333,0 -8.58667,-1.86667 -3.73333,-1.92 -5.76,-5.28 -2.02666,-3.36 -2.02666,-7.62667 0,-4.21333 1.97333,-7.57333 2.02667,-3.41333 5.49333,-5.28 3.52,-1.92 7.84,-1.92 4.21334,0 7.62667,1.81333 3.41333,1.81334 5.33333,5.22667 1.97333,3.36 1.97333,7.84 z m -14.87999,-8.58667 q -2.82667,0 -4.74667,1.6 -1.92,1.6 -2.34667,4.37334 h 14.13334 q -0.42667,-2.72 -2.34667,-4.32 -1.92,-1.65334 -4.69333,-1.65334 z m -11.52,-17.22666 h 8.96 l 7.2,7.68 h -6.50667 z"
             style="font-style:normal;font-variant:normal;font-weight:bold;font-stretch:normal;font-size:53.33333206px;line-height:1.25;font-family:Montserrat;-inkscape-font-specification:'Montserrat Bold';font-variant-ligatures:normal;font-variant-caps:normal;font-variant-numeric:normal;font-feature-settings:normal;text-align:start;writing-mode:lr-tb;text-anchor:start;fill:#ffffff"
             id="path867" />
          <path
             d="m 993.70073,240.58626 q 1.49333,-2.08 4,-3.14666 2.55997,-1.06667 5.86667,-1.06667 v 7.68 q -1.3867,-0.10667 -1.8667,-0.10667 -3.5733,0 -5.59997,2.02667 -2.02667,1.97333 -2.02667,5.97333 v 13.54667 h -8.32 V 236.7996 h 7.94667 z"
             style="font-style:normal;font-variant:normal;font-weight:bold;font-stretch:normal;font-size:53.33333206px;line-height:1.25;font-family:Montserrat;-inkscape-font-specification:'Montserrat Bold';font-variant-ligatures:normal;font-variant-caps:normal;font-variant-numeric:normal;font-feature-settings:normal;text-align:start;writing-mode:lr-tb;text-anchor:start;fill:#ffffff"
             id="path869" />
          <path
             d="m 1036.3607,251.25293 q 0,0.16 -0.16,2.24 h -21.7066 q 0.5866,2.66667 2.7733,4.21333 2.1867,1.54667 5.44,1.54667 2.24,0 3.9467,-0.64 1.76,-0.69333 3.2533,-2.13333 l 4.4267,4.8 q -4.0534,4.64 -11.84,4.64 -4.8534,0 -8.5867,-1.86667 -3.7333,-1.92 -5.76,-5.28 -2.0267,-3.36 -2.0267,-7.62667 0,-4.21333 1.9734,-7.57333 2.0266,-3.41333 5.4933,-5.28 3.52,-1.92 7.84,-1.92 4.2133,0 7.6267,1.81333 3.4133,1.81334 5.3333,5.22667 1.9733,3.36 1.9733,7.84 z m -14.88,-8.58667 q -2.8266,0 -4.7466,1.6 -1.92,1.6 -2.3467,4.37334 h 14.1333 q -0.4266,-2.72 -2.3466,-4.32 -1.92,-1.65334 -4.6934,-1.65334 z"
             style="font-style:normal;font-variant:normal;font-weight:bold;font-stretch:normal;font-size:53.33333206px;line-height:1.25;font-family:Montserrat;-inkscape-font-specification:'Montserrat Bold';font-variant-ligatures:normal;font-variant-caps:normal;font-variant-numeric:normal;font-feature-settings:normal;text-align:start;writing-mode:lr-tb;text-anchor:start;fill:#ffffff"
             id="path871" />
          <path
             d="m 1057.5907,228.1596 h 8.64 v 37.33333 h -8.64 z"
             style="font-style:normal;font-variant:normal;font-weight:bold;font-stretch:normal;font-size:53.33333206px;line-height:1.25;font-family:Montserrat;-inkscape-font-specification:'Montserrat Bold';font-variant-ligatures:normal;font-variant-caps:normal;font-variant-numeric:normal;font-feature-settings:normal;text-align:start;writing-mode:lr-tb;text-anchor:start;fill:#ffffff"
             id="path873" />
          <path
             d="m 1091.9441,236.37293 q 5.3333,0 8.5866,3.2 3.3067,3.2 3.3067,9.49333 v 16.42667 h -8.32 v -15.14667 q 0,-3.41333 -1.4933,-5.06666 -1.4934,-1.70667 -4.32,-1.70667 -3.1467,0 -5.0134,1.97333 -1.8666,1.92 -1.8666,5.76 v 14.18667 h -8.32 V 236.7996 h 7.9466 v 3.36 q 1.6534,-1.81334 4.1067,-2.77334 2.4533,-1.01333 5.3867,-1.01333 z"
             style="font-style:normal;font-variant:normal;font-weight:bold;font-stretch:normal;font-size:53.33333206px;line-height:1.25;font-family:Montserrat;-inkscape-font-specification:'Montserrat Bold';font-variant-ligatures:normal;font-variant-caps:normal;font-variant-numeric:normal;font-feature-settings:normal;text-align:start;writing-mode:lr-tb;text-anchor:start;fill:#ffffff"
             id="path875" />
          <path
             d="m 1125.5582,265.9196 q -4.5866,0 -8.2666,-1.86667 -3.6267,-1.92 -5.7067,-5.28 -2.0267,-3.36 -2.0267,-7.62667 0,-4.26666 2.0267,-7.62666 2.08,-3.36 5.7067,-5.22667 3.68,-1.92 8.2666,-1.92 4.5334,0 7.8934,1.92 3.4133,1.86667 4.96,5.38667 l -6.4534,3.46666 q -2.24,-3.94666 -6.4533,-3.94666 -3.2533,0 -5.3867,2.13333 -2.1333,2.13333 -2.1333,5.81333 0,3.68 2.1333,5.81334 2.1334,2.13333 5.3867,2.13333 4.2667,0 6.4533,-3.94667 l 6.4534,3.52 q -1.5467,3.41334 -4.96,5.33334 -3.36,1.92 -7.8934,1.92 z"
             style="font-style:normal;font-variant:normal;font-weight:bold;font-stretch:normal;font-size:53.33333206px;line-height:1.25;font-family:Montserrat;-inkscape-font-specification:'Montserrat Bold';font-variant-ligatures:normal;font-variant-caps:normal;font-variant-numeric:normal;font-feature-settings:normal;text-align:start;writing-mode:lr-tb;text-anchor:start;fill:#ffffff"
             id="path877" />
          <path
             d="m 1147.4424,265.9196 q -2.1867,0 -3.68,-1.49334 -1.4933,-1.49333 -1.4933,-3.73333 0,-2.29333 1.4933,-3.68 1.4933,-1.44 3.68,-1.44 2.1867,0 3.68,1.44 1.4933,1.38667 1.4933,3.68 0,2.24 -1.4933,3.73333 -1.4933,1.49334 -3.68,1.49334 z"
             style="font-style:normal;font-variant:normal;font-weight:bold;font-stretch:normal;font-size:53.33333206px;line-height:1.25;font-family:Montserrat;-inkscape-font-specification:'Montserrat Bold';font-variant-ligatures:normal;font-variant-caps:normal;font-variant-numeric:normal;font-feature-settings:normal;text-align:start;writing-mode:lr-tb;text-anchor:start;fill:#ffffff"
             id="path879" />
        </g>
      </g>
    </g>
  </g>
</svg>
